<?xml version="1.0" standalone="no"?>
<!DOCTYPE svg PUBLIC "-//W3C//DTD SVG 20010904//EN"
 "http://www.w3.org/TR/2001/REC-SVG-20010904/DTD/svg10.dtd">
<svg version="1.0" xmlns="http://www.w3.org/2000/svg"
 width="228.000000pt" height="228.000000pt" viewBox="0 0 228.000000 228.000000"
 preserveAspectRatio="xMidYMid meet">
<metadata>
Created by potrace 1.14, written by Peter Selinger 2001-2017
</metadata>
<g transform="translate(0.000000,228.000000) scale(0.100000,-0.100000)"
fill="#000000" stroke="none">
<path d="M915 2241 c-16 -9 -31 -19 -33 -23 -2 -5 -10 -8 -17 -8 -8 0 -19 -8
-24 -17 -6 -10 -11 -14 -11 -10 0 5 -7 2 -15 -5 -34 -31 -45 -38 -45 -31 0 4
-6 1 -13 -7 -7 -8 -43 -35 -82 -60 -70 -44 -115 -76 -147 -105 -10 -8 -18 -13
-18 -10 0 3 -35 -20 -77 -50 -43 -31 -86 -58 -95 -62 -10 -3 -18 -9 -18 -14 0
-5 -7 -9 -15 -9 -8 0 -15 -4 -15 -8 0 -5 -16 -17 -35 -28 -19 -10 -35 -22 -35
-26 0 -3 -9 -10 -20 -13 -38 -12 -76 -59 -71 -87 0 -5 -2 -8 -7 -8 -5 0 -9
-1045 -3 -1148 1 -15 5 -21 13 -16 7 4 8 3 4 -4 -4 -7 2 -22 13 -34 12 -12 21
-25 21 -29 0 -4 9 -6 20 -4 14 3 20 -2 20 -13 0 -15 2 -15 10 -2 7 11 10 12
10 2 0 -8 7 -11 19 -7 10 3 24 -1 31 -10 14 -16 35 -21 25 -5 -3 6 1 7 9 4 9
-3 16 -10 16 -15 0 -5 10 -9 23 -9 13 0 29 -6 36 -12 11 -10 13 -10 7 0 -4 6
-2 12 3 12 6 0 11 -5 11 -11 0 -6 7 -8 16 -5 8 3 13 2 10 -3 -3 -5 5 -11 19
-13 16 -3 22 -1 19 6 -3 6 1 3 9 -7 11 -14 16 -15 20 -5 4 11 6 11 6 0 1 -7 5
-10 11 -7 5 3 10 0 10 -7 0 -9 3 -9 10 2 5 8 10 10 10 4 0 -18 46 -34 59 -21
8 8 11 8 11 0 0 -6 7 -14 16 -17 10 -4 13 -2 8 7 -4 6 1 5 12 -4 25 -21 57
-33 48 -18 -4 8 0 7 15 0 12 -7 26 -9 31 -6 5 3 12 0 16 -6 5 -8 3 -9 -6 -4
-9 5 -11 4 -6 -4 4 -6 11 -9 16 -6 5 3 19 1 31 -6 17 -8 20 -8 14 1 -4 7 4 4
19 -5 14 -10 26 -13 26 -9 0 5 5 2 10 -6 9 -13 10 -13 10 0 1 12 3 11 11 -3 6
-9 15 -15 20 -11 5 3 17 0 26 -8 12 -9 15 -9 9 -1 -5 9 -2 11 8 7 9 -3 14 -10
11 -14 -7 -11 29 -7 37 5 4 6 8 2 8 -9 0 -13 5 -17 20 -13 11 3 20 1 20 -4 0
-4 7 -6 16 -2 10 4 20 -1 26 -11 5 -9 13 -14 18 -11 4 3 26 -2 48 -9 22 -8 43
-12 46 -9 3 3 13 -2 22 -12 14 -13 19 -14 25 -3 7 10 9 10 9 -2 0 -13 2 -13 9
-1 8 12 12 12 25 2 13 -11 17 -11 22 3 3 9 10 14 14 11 5 -3 16 2 24 11 9 8
16 12 16 8 0 -4 11 5 24 19 13 14 27 23 30 20 3 -3 9 2 12 11 5 14 9 15 15 4
7 -10 9 -9 9 5 0 9 3 16 8 15 13 -5 52 28 44 37 -4 4 1 5 11 2 11 -4 20 -1 23
8 4 8 10 13 14 10 4 -3 10 2 14 10 3 8 12 15 21 15 8 0 15 5 15 10 0 6 7 10
15 10 9 0 18 7 21 15 4 8 10 12 15 9 5 -3 9 0 9 5 0 6 6 10 13 9 6 -2 11 3 9
10 -1 8 3 12 10 10 7 -3 21 4 31 15 9 11 17 16 17 11 0 -5 4 -4 8 1 4 6 27 24
52 40 25 16 47 33 50 36 3 4 15 9 28 13 12 4 20 12 17 17 -4 5 1 9 9 9 9 0 16
5 16 11 0 5 5 7 10 4 6 -3 10 -1 10 4 0 6 6 11 14 11 8 0 16 3 18 8 2 4 23 20
48 37 25 16 48 34 52 40 4 5 8 6 8 2 0 -4 12 4 28 20 15 15 26 31 24 35 -1 4
2 8 8 8 20 0 23 92 23 612 l0 537 -23 35 c-25 35 -63 63 -96 69 -11 2 -26 6
-34 9 -41 15 -106 31 -117 30 -6 -2 -14 2 -18 8 -3 5 -16 10 -28 10 -12 0 -35
7 -50 15 -15 8 -25 10 -22 5 4 -6 1 -10 -4 -10 -6 0 -11 4 -11 9 0 8 -70 25
-86 21 -4 -1 -10 3 -13 8 -3 6 -20 12 -38 15 -17 3 -38 9 -45 13 -7 5 -21 7
-30 6 -10 -2 -18 1 -18 5 0 5 -9 9 -21 10 -19 2 -129 34 -169 50 -8 3 -26 7
-39 9 -13 2 -31 6 -40 10 -9 4 -22 8 -29 10 -8 1 -21 6 -30 10 -9 4 -24 8 -32
9 -8 2 -26 6 -40 10 -14 4 -31 7 -37 7 -7 1 -13 5 -13 10 0 5 -5 6 -10 3 -6
-4 -17 -2 -24 4 -8 7 -18 11 -22 10 -5 -1 -11 0 -14 1 -18 9 -80 4 -105 -9z
m118 -124 c-4 -6 3 -8 15 -5 12 4 22 2 22 -3 0 -4 7 -5 17 -2 12 5 14 3 8 -7
-6 -10 -4 -12 7 -7 9 3 21 0 28 -6 8 -7 10 -7 7 -1 -3 6 0 11 8 11 8 0 12 -4
9 -8 -2 -4 0 -10 6 -14 5 -3 10 0 10 7 0 10 2 10 9 -1 5 -8 18 -12 30 -8 11 3
19 0 18 -5 -2 -10 20 -18 53 -20 8 -1 18 -6 22 -12 5 -7 8 -6 8 4 0 12 2 12 9
2 4 -7 18 -14 29 -15 12 -1 22 -6 22 -12 0 -5 5 -3 10 5 8 12 10 12 11 -5 0
-11 3 -14 6 -8 4 10 9 10 26 -2 16 -11 24 -12 36 -2 12 10 13 9 6 -2 -6 -11
-3 -13 13 -9 13 4 25 1 30 -6 4 -7 17 -15 30 -18 12 -4 20 -3 17 1 -2 4 2 8
10 8 8 0 13 -5 12 -10 -2 -9 18 -15 66 -19 9 -1 17 -6 17 -11 0 -5 8 -3 18 4
9 7 14 9 10 5 -4 -5 0 -15 10 -22 13 -9 20 -10 31 -1 12 10 13 9 6 -2 -6 -11
-2 -13 19 -9 19 4 29 1 33 -9 3 -8 11 -12 18 -9 7 2 25 -2 40 -10 15 -8 30
-12 33 -9 3 3 14 -3 24 -12 18 -16 19 -16 13 3 -6 18 -6 18 8 2 8 -10 21 -18
30 -18 9 0 27 -4 42 -10 22 -8 24 -12 13 -24 -7 -8 -16 -12 -20 -10 -3 2 -8 1
-10 -4 -1 -4 -29 -24 -60 -45 -31 -20 -65 -45 -74 -55 -10 -9 -18 -15 -19 -12
-1 6 -149 -92 -153 -102 -2 -5 -10 -8 -18 -8 -8 0 -14 -4 -14 -9 0 -5 -24 0
-52 11 -29 11 -53 19 -53 18 0 -3 -60 12 -80 20 -17 7 -88 31 -105 35 -40 10
-73 20 -110 32 -25 8 -52 16 -60 18 -8 2 -43 13 -77 23 -34 11 -64 17 -67 14
-3 -3 -6 0 -6 7 0 7 -4 9 -10 6 -13 -8 -12 -19 -14 175 -2 183 -1 197 19 197
8 0 11 -5 8 -10z m-99 -8 c-3 -6 -1 -15 6 -19 9 -5 9 -13 2 -27 -6 -11 -7 -25
-2 -33 4 -7 4 -24 -1 -37 -5 -12 -5 -23 -1 -23 9 0 7 -95 -3 -110 -3 -5 -2
-10 3 -10 5 0 7 -19 5 -42 -4 -49 -6 -50 -153 -158 -93 -68 -97 -71 -119 -91
-10 -9 -29 -15 -42 -13 -24 2 -64 11 -64 14 0 2 -36 11 -57 14 -10 1 -21 5
-24 9 -4 4 -17 7 -29 7 -11 0 -26 5 -33 12 -7 7 -12 9 -12 6 0 -4 -25 2 -55
12 -30 10 -55 17 -55 14 0 -3 -9 0 -20 6 -11 6 -20 16 -20 23 0 8 3 8 9 -2 7
-11 11 -9 20 8 7 12 16 19 21 16 5 -3 13 3 19 12 6 10 11 14 11 10 0 -7 10 0
45 31 7 6 16 12 20 12 4 0 13 7 22 15 8 8 19 12 25 9 7 -4 8 -2 4 4 -4 7 3 14
19 18 13 3 23 10 20 14 -3 5 5 12 17 16 13 4 31 16 40 26 9 11 19 19 22 19 15
-2 65 37 58 44 -4 4 1 5 10 2 12 -4 21 1 28 14 6 11 14 17 19 15 4 -3 19 6 33
19 14 13 29 21 32 18 3 -4 6 -1 6 6 0 7 5 9 12 5 7 -5 9 -2 5 9 -4 11 -2 14 8
11 7 -3 24 4 37 16 58 53 61 55 53 40 -4 -8 7 0 26 18 35 33 45 40 33 21z
m1130 -829 c0 -264 -3 -482 -5 -484 -2 -3 -31 4 -63 15 -33 10 -61 17 -64 14
-2 -2 -21 4 -42 15 -21 11 -39 17 -42 15 -2 -2 -44 9 -93 25 l-90 28 -2 82
c-1 78 0 84 28 113 16 16 29 33 30 36 11 97 9 129 -12 155 -12 15 -27 25 -33
23 -8 -3 -12 21 -12 82 0 69 4 89 17 101 45 39 58 48 63 43 3 -4 6 -1 6 5 0 7
6 12 13 12 7 0 24 11 39 24 14 14 29 22 32 19 3 -4 6 2 7 13 0 10 3 14 5 7 4
-8 11 -7 24 5 37 34 48 41 54 35 3 -4 6 1 6 11 0 9 4 15 9 11 5 -3 16 1 24 10
8 8 21 16 28 17 20 5 38 22 31 32 -3 5 0 6 6 2 6 -3 13 -2 17 4 3 5 9 10 13
10 4 0 7 -216 6 -480z m-1808 289 c-11 17 10 13 24 -4 7 -9 21 -13 30 -10 10
3 25 -2 34 -10 12 -12 16 -13 17 -3 0 10 2 10 6 1 2 -7 9 -13 14 -13 6 0 7 6
3 13 -6 8 -3 8 9 -1 9 -8 22 -10 28 -6 7 4 9 3 5 -4 -10 -16 13 -25 30 -11 12
10 15 10 12 -2 -2 -9 4 -13 15 -11 9 2 17 -2 17 -8 0 -5 5 -10 11 -10 5 0 7 6
3 13 -4 6 3 3 16 -8 13 -11 20 -14 16 -8 -5 9 -2 11 8 7 9 -3 16 -11 16 -18 0
-6 5 -4 10 4 6 10 10 11 10 3 0 -7 9 -13 20 -13 18 0 19 -7 19 -106 0 -106 0
-107 31 -137 27 -26 31 -36 29 -79 -2 -29 -7 -48 -14 -48 -32 0 -45 -36 -46
-127 l-1 -91 -58 -41 c-32 -23 -61 -41 -65 -41 -3 0 -12 -6 -20 -12 -32 -31
-54 -46 -59 -41 -3 4 -6 2 -6 -3 0 -5 -16 -18 -35 -28 -19 -11 -35 -23 -35
-28 0 -4 -7 -8 -15 -8 -8 0 -15 -5 -15 -11 0 -5 -4 -8 -9 -5 -5 4 -11 3 -13
-2 -3 -8 -63 -52 -71 -52 -2 0 -4 218 -3 484 1 470 2 484 20 474 13 -7 16 -7
12 1z m1330 -177 c-1 -31 -7 -39 -56 -71 -30 -20 -57 -38 -60 -41 -3 -4 -47
-34 -99 -68 -71 -46 -98 -59 -107 -51 -7 6 -18 8 -23 5 -5 -4 -13 -1 -16 5 -4
5 -13 8 -21 5 -8 -3 -14 -1 -14 5 0 5 -6 9 -12 8 -12 -2 -76 15 -203 54 -22 6
-46 11 -52 9 -7 -2 -13 1 -13 5 0 5 -12 10 -26 11 -14 1 -31 5 -37 9 -7 4 -18
9 -24 10 -7 2 -19 4 -25 6 -7 2 -28 7 -47 11 -43 10 -62 28 -51 47 5 7 5 18
-1 25 -7 9 -3 15 13 20 37 13 48 13 55 2 4 -7 1 -8 -8 -3 -8 5 -11 4 -6 0 4
-5 23 -10 43 -11 19 0 40 -6 46 -12 6 -6 17 -8 26 -5 11 5 13 3 7 -8 -7 -12
-6 -12 7 -1 13 10 17 10 22 -3 4 -11 13 -14 26 -10 11 4 20 2 20 -4 0 -6 5
-11 11 -11 5 0 7 6 4 13 -4 6 1 3 9 -7 9 -11 16 -14 16 -7 0 7 5 9 10 6 6 -4
8 -10 6 -14 -3 -4 1 -8 9 -8 8 0 11 5 8 11 -4 6 4 2 17 -9 14 -12 20 -14 15
-5 -8 13 -6 13 8 2 9 -8 20 -11 26 -8 5 3 11 2 13 -4 1 -5 15 -11 31 -12 15
-1 27 -6 27 -11 0 -5 11 -7 25 -5 18 4 25 1 25 -11 0 -14 2 -14 10 -1 8 12 10
12 10 1 0 -8 3 -11 7 -8 3 4 13 1 21 -6 13 -10 14 -9 7 3 -6 12 -5 12 5 3 14
-13 43 -6 34 8 -3 5 3 6 12 2 12 -4 15 -3 10 5 -4 8 -2 10 7 6 9 -3 22 4 31
18 9 12 16 18 16 13 0 -6 5 -3 10 5 5 8 13 16 17 16 28 5 52 18 47 25 -2 5 7
11 21 15 13 3 22 10 19 15 -3 5 0 9 6 9 7 0 22 8 35 18 37 29 52 24 51 -16z
m-764 -216 c-3 -5 2 -7 11 -3 10 3 17 2 17 -4 0 -6 5 -7 11 -3 6 3 15 0 20 -7
7 -11 9 -11 9 -1 0 8 8 6 22 -7 11 -11 26 -17 32 -14 16 10 46 11 40 1 -3 -4
0 -8 6 -8 6 0 9 -4 6 -8 -3 -5 1 -9 9 -9 8 0 12 4 9 9 -3 4 0 8 5 8 6 0 11 -4
11 -8 0 -4 12 -9 28 -10 15 -1 29 -7 30 -13 3 -6 10 -5 20 3 12 10 14 10 8 1
-4 -8 -1 -13 9 -13 9 0 13 -4 10 -10 -3 -5 -2 -10 4 -10 14 0 2 -31 -19 -52
-12 -11 -21 -13 -28 -6 -5 5 -20 11 -33 13 -13 2 -45 10 -71 18 -26 8 -49 12
-52 9 -4 -3 -6 0 -6 6 0 7 -13 12 -28 12 -16 0 -32 3 -36 7 -3 4 -13 8 -21 9
-7 1 -30 7 -49 14 -35 11 -45 28 -38 67 3 17 10 21 37 20 18 -1 30 -6 27 -11z
m762 -228 c-2 -17 -5 -32 -6 -33 -2 -1 -27 -18 -56 -38 -28 -20 -56 -37 -61
-37 -5 0 -12 -7 -15 -16 -4 -9 -9 -14 -12 -11 -6 5 -15 0 -49 -30 -7 -7 -17
-13 -22 -13 -4 0 -20 -11 -34 -24 -26 -24 -67 -25 -129 -4 -27 10 -95 29 -110
32 -8 1 -35 9 -60 16 -25 7 -49 14 -55 16 -5 1 -30 7 -55 14 -25 7 -49 13 -55
14 -5 2 -30 8 -55 15 -25 7 -55 15 -68 17 -36 7 -51 25 -41 51 5 13 6 23 3 23
-2 0 1 6 8 14 11 11 14 11 20 1 5 -7 17 -11 28 -8 13 3 20 0 20 -8 0 -10 3
-10 11 -2 13 13 42 6 33 -8 -3 -5 2 -6 10 -3 10 4 16 1 16 -7 0 -11 3 -11 10
1 7 11 10 11 10 2 0 -7 5 -10 10 -7 6 3 10 0 10 -7 0 -11 2 -10 9 0 6 11 10
10 15 -3 5 -14 9 -15 21 -5 12 10 15 10 15 0 0 -7 7 -10 15 -6 9 3 18 -1 21
-9 4 -8 10 -15 16 -15 5 0 6 6 2 13 -6 8 -3 8 9 -1 9 -8 21 -11 27 -7 5 3 10
-2 10 -12 0 -15 2 -16 10 -3 7 11 10 11 10 2 0 -7 5 -10 10 -7 6 3 10 0 10 -7
0 -11 2 -11 9 0 7 11 11 11 24 -2 18 -19 31 -21 21 -4 -4 6 3 4 15 -5 13 -8
30 -13 37 -10 8 3 14 1 14 -5 0 -5 7 -13 16 -16 8 -3 12 -2 9 4 -3 6 -1 10 4
10 6 0 11 -5 11 -12 0 -6 3 -8 7 -5 3 4 12 2 20 -4 9 -9 13 -8 13 0 0 6 7 11
15 11 8 0 15 4 15 9 0 5 11 12 25 15 14 4 23 11 20 16 -3 6 1 10 9 10 9 0 25
9 35 19 11 11 22 17 25 13 3 -3 6 0 6 7 0 7 5 9 10 6 6 -3 10 1 10 10 0 9 5
13 10 10 6 -3 13 1 16 9 3 9 9 14 14 11 4 -2 16 5 28 15 12 11 26 20 32 20 5
0 10 6 10 13 0 9 2 9 9 -1 4 -8 7 -28 5 -44z m56 -121 c0 9 8 9 33 -1 17 -7
38 -11 46 -8 9 3 11 0 6 -8 -6 -9 -4 -11 5 -5 7 4 16 2 21 -6 7 -11 9 -11 9
-1 0 10 5 9 17 -4 12 -11 18 -13 21 -5 3 8 8 7 16 -4 6 -9 23 -16 36 -17 14
-1 30 -5 36 -10 7 -5 16 -8 20 -6 5 1 20 -4 34 -12 24 -13 24 -12 10 6 -14 18
-14 18 6 1 11 -9 24 -14 27 -10 4 3 7 0 7 -9 0 -12 -147 -121 -185 -137 -5 -2
-15 -9 -22 -15 -29 -26 -42 -36 -47 -36 -5 0 -96 -60 -106 -70 -3 -3 -45 -32
-95 -65 -49 -33 -91 -63 -93 -67 -2 -5 -9 -8 -16 -8 -7 0 -25 -11 -40 -25 -14
-13 -26 -21 -26 -18 0 3 -9 -2 -21 -13 l-21 -19 3 40 c2 22 0 46 -4 53 -5 6
-3 21 3 32 7 14 8 26 0 39 -7 14 -7 22 0 26 8 5 8 11 0 20 -6 7 -7 20 -4 30 9
21 10 78 2 91 -3 5 1 23 8 39 7 17 13 26 14 22 0 -4 29 13 65 38 36 25 67 45
70 45 6 0 20 11 49 37 8 7 16 9 20 6 3 -4 6 -1 6 5 0 7 5 12 10 12 10 0 26 11
53 36 9 9 14 9 19 0 6 -8 8 -8 8 1z m-950 -47 c0 -13 1 -13 10 0 8 12 10 12
10 1 0 -8 3 -11 7 -8 3 4 18 0 31 -9 24 -15 25 -15 18 1 -6 15 -4 16 10 4 9
-7 23 -14 32 -16 9 -1 18 -7 21 -14 2 -8 6 -7 12 2 6 10 9 11 9 2 0 -7 5 -13
11 -13 5 0 7 6 3 13 -6 8 -3 8 9 -1 9 -8 21 -11 27 -7 6 4 9 1 8 -5 -2 -7 4
-14 12 -15 8 -2 26 -6 40 -8 14 -3 25 -6 25 -7 0 -1 8 -3 19 -5 10 -2 23 -8
29 -14 7 -7 16 -7 30 0 14 8 18 8 13 0 -6 -10 20 -16 47 -12 4 0 7 -4 7 -10 0
-7 10 -9 25 -7 16 4 29 0 34 -10 5 -9 15 -12 24 -9 9 3 19 1 23 -5 4 -7 10 -6
16 3 8 11 9 10 4 -3 -3 -10 -1 -20 5 -23 5 -4 7 -11 3 -16 -3 -5 -6 -84 -7
-174 -1 -91 -5 -165 -10 -165 -21 -2 -78 13 -83 21 -3 5 -10 7 -15 3 -5 -3
-16 0 -24 6 -8 7 -15 10 -15 7 0 -3 -24 1 -52 10 -29 8 -57 16 -63 18 -5 1
-17 5 -25 8 -17 6 -74 19 -78 18 -1 -1 -18 6 -38 14 -20 8 -47 15 -60 15 -13
0 -24 4 -24 8 0 5 -6 9 -12 9 -20 1 -57 10 -133 33 -38 12 -77 23 -86 25 -8 2
-38 10 -66 18 -28 9 -54 13 -57 10 -3 -4 -6 -1 -6 6 0 7 -7 11 -15 8 -8 -4
-17 -2 -20 4 -4 5 -10 7 -15 4 -5 -3 -11 -1 -15 5 -3 5 -17 10 -30 10 -13 0
-31 8 -40 17 -16 16 -16 17 4 25 11 4 21 12 21 18 0 6 5 8 10 5 6 -3 10 -1 10
6 0 7 3 10 6 6 6 -6 17 1 55 36 10 9 20 16 22 15 5 -6 46 29 42 35 -3 4 -2 5
1 2 8 -6 64 27 64 37 0 4 7 8 15 8 9 0 27 11 41 25 14 14 31 25 39 25 8 0 15
6 15 13 0 7 14 12 35 12 24 0 35 -5 35 -15z m1165 0 c3 -6 -1 -7 -9 -4 -18 7
-21 14 -7 14 6 0 13 -4 16 -10z"/>
</g>
</svg>
