<?xml version="1.0" standalone="no"?>
<!DOCTYPE svg PUBLIC "-//W3C//DTD SVG 20010904//EN"
 "http://www.w3.org/TR/2001/REC-SVG-20010904/DTD/svg10.dtd">
<svg version="1.0" xmlns="http://www.w3.org/2000/svg"
 width="92.000000pt" height="92.000000pt" viewBox="0 0 92.000000 92.000000"
 preserveAspectRatio="xMidYMid meet">
<metadata>
Created by potrace 1.14, written by Peter Selinger 2001-2017
</metadata>
<g transform="translate(0.000000,92.000000) scale(0.100000,-0.100000)"
fill="#000000" stroke="none">
<path d="M101 771 c-9 -6 -11 -620 -2 -622 4 -1 62 -2 130 -3 109 -2 124 0
130 16 3 9 6 110 5 225 l0 208 -47 3 -47 3 0 -180 0 -181 -40 0 -40 0 0 220 0
220 198 0 c171 0 202 -3 237 -19 130 -60 175 -228 89 -331 -14 -16 -29 -30
-33 -30 -4 0 -12 15 -19 34 -10 27 -9 40 3 70 30 71 -2 155 -67 181 -21 8 -65
15 -97 15 l-60 0 2 -47 2 -47 59 -2 c59 -2 76 -12 76 -45 0 -28 -28 -42 -83
-43 l-52 -1 -1 -47 -2 -48 58 0 c63 0 84 -14 78 -52 -3 -21 -9 -23 -70 -26
l-66 -3 1 -47 2 -47 83 1 c71 1 91 6 147 33 166 82 226 283 132 443 -33 57
-76 94 -147 127 -54 24 -60 25 -302 26 -136 1 -252 -1 -257 -4z"/>
</g>
</svg>
