<?xml version="1.0" standalone="no"?>
<!DOCTYPE svg PUBLIC "-//W3C//DTD SVG 20010904//EN"
 "http://www.w3.org/TR/2001/REC-SVG-20010904/DTD/svg10.dtd">
<svg version="1.0" xmlns="http://www.w3.org/2000/svg"
 width="85.000000pt" height="85.000000pt" viewBox="0 0 85.000000 85.000000"
 preserveAspectRatio="xMidYMid meet">
<metadata>
Created by potrace 1.14, written by Peter Selinger 2001-2017
</metadata>
<g transform="translate(0.000000,85.000000) scale(0.100000,-0.100000)"
fill="#000000" stroke="none">
<path d="M46 741 c-2 -3 -3 -145 -2 -316 l1 -310 133 0 c126 -1 132 0 133 20
3 58 4 412 1 423 -3 7 -22 12 -48 12 l-44 0 0 -180 0 -180 -40 0 -40 0 0 220
0 220 195 0 c217 0 243 -6 304 -63 66 -63 86 -143 56 -228 -14 -40 -50 -89
-65 -89 -3 0 -11 15 -18 32 -9 27 -8 42 4 78 18 52 12 97 -17 134 -32 41 -71
56 -144 56 l-65 0 0 -45 c0 -29 5 -45 13 -46 6 -1 28 -2 47 -3 56 -3 80 -15
80 -40 0 -34 -21 -47 -82 -49 l-53 -2 -1 -48 -2 -47 58 0 c63 0 84 -14 78 -52
-3 -21 -9 -23 -68 -28 l-65 -5 0 -45 0 -45 82 2 c123 3 211 48 273 141 106
160 48 367 -126 453 l-65 32 -255 2 c-140 1 -256 -1 -258 -4z"/>
</g>
</svg>
